<svg width="30" height="30" viewBox="0 0 30 30" fill="none" xmlns="http://www.w3.org/2000/svg">
<g clip-path="url(#clip0_16_1424)">
<path strokeWidth='0.5' d="M15 29.625C12.1075 29.625 9.27985 28.7673 6.87479 27.1602C4.46972 25.5532 2.5952 23.2691 1.48827 20.5968C0.381335 17.9243 0.0917115 14.9837 0.656025 12.1468C1.22032 9.30983 2.61322 6.70392 4.65856 4.65856C6.70392 2.61322 9.30983 1.22032 12.1468 0.656025C14.9837 0.0917115 17.9243 0.381335 20.5968 1.48827C23.2691 2.5952 25.5532 4.46972 27.1602 6.87479C28.7673 9.27985 29.625 12.1075 29.625 15C29.625 18.8789 28.0842 22.5987 25.3415 25.3415C22.5987 28.0842 18.8789 29.625 15 29.625ZM15 2.8125C12.5895 2.8125 10.2332 3.52729 8.229 4.86647C6.22477 6.20564 4.66266 8.10907 3.74023 10.3361C2.81778 12.563 2.57643 15.0135 3.04668 17.3777C3.51694 19.7417 4.67769 21.9134 6.38214 23.6179C8.0866 25.3223 10.2582 26.4831 12.6223 26.9533C14.9865 27.4236 17.437 27.1823 19.6639 26.2598C21.891 25.3373 23.7943 23.7752 25.1335 21.771C26.4727 19.7668 27.1875 17.4105 27.1875 15C27.1875 11.7677 25.9034 8.66775 23.6179 6.38214C21.3323 4.09654 18.2323 2.8125 15 2.8125Z" fill="white"/>
<path strokeWidth='0.5' d="M15 22.7187C14.6781 22.7145 14.3705 22.5848 14.1428 22.3572C13.9151 22.1295 13.7855 21.8219 13.7812 21.5V8.5C13.7812 8.17677 13.9096 7.86677 14.1383 7.63821C14.3667 7.40966 14.6768 7.28125 15 7.28125C15.3232 7.28125 15.6333 7.40966 15.8617 7.63821C16.0904 7.86677 16.2188 8.17677 16.2188 8.5V21.5C16.2145 21.8219 16.0849 22.1295 15.8572 22.3572C15.6295 22.5848 15.3219 22.7145 15 22.7187Z" fill="white"/>
<path strokeWidth='0.5' d="M21.5 16.2188H8.5C8.17677 16.2188 7.86677 16.0904 7.63821 15.8617C7.40966 15.6333 7.28125 15.3232 7.28125 15C7.28125 14.6768 7.40966 14.3667 7.63821 14.1383C7.86677 13.9096 8.17677 13.7812 8.5 13.7812H21.5C21.8232 13.7812 22.1333 13.9096 22.3617 14.1383C22.5904 14.3667 22.7187 14.6768 22.7187 15C22.7187 15.3232 22.5904 15.6333 22.3617 15.8617C22.1333 16.0904 21.8232 16.2188 21.5 16.2188Z" fill="white"/>
</g>
<defs>
<clipPath id="clip0_16_1424">
<rect width="30" height="30" fill="white"/>
</clipPath>
</defs>
</svg>
