<svg width="36" height="36" viewBox="0 0 36 36" fill="none" xmlns="http://www.w3.org/2000/svg">
<path d="M4.5 18C4.5 10.5441 10.5441 4.5 18 4.5C25.4558 4.5 31.5 10.5441 31.5 18C31.5 25.4558 25.4558 31.5 18 31.5C10.5441 31.5 4.5 25.4558 4.5 18Z" fill="#EA3943"/>
<path d="M4.5 18C4.5 10.5441 10.5441 4.5 18 4.5C25.4558 4.5 31.5 10.5441 31.5 18C31.5 25.4558 25.4558 31.5 18 31.5C10.5441 31.5 4.5 25.4558 4.5 18Z" stroke="#323232" stroke-width="3"/>
<path d="M18 24V12" stroke="#323232" stroke-width="3" stroke-linecap="round" stroke-linejoin="round"/>
<path d="M13.5 19.5L17.8695 23.8694C17.9415 23.9415 18.0585 23.9415 18.1305 23.8694L22.5 19.5" stroke="#323232" stroke-width="3" stroke-linecap="round" stroke-linejoin="round"/>
</svg>
