<svg width="38" height="38" viewBox="0 0 38 38" fill="none" xmlns="http://www.w3.org/2000/svg">
<path d="M23.75 19C23.75 21.6234 21.6234 23.75 19 23.75C16.3766 23.75 14.25 21.6234 14.25 19C14.25 16.3766 16.3766 14.25 19 14.25C21.6234 14.25 23.75 16.3766 23.75 19Z" fill="white"/>
<path d="M4.75 19H7.91667M7.91676 30.0833L11.0834 26.9167M19 30.0833V33.25M26.9167 26.9167L30.0833 30.0833M7.91667 7.91667L11.0833 11.0833M30.0833 19H33.25M26.9165 11.0833L30.0832 7.91667M19 4.75V7.91667M23.75 19C23.75 21.6234 21.6234 23.75 19 23.75C16.3766 23.75 14.25 21.6234 14.25 19C14.25 16.3766 16.3766 14.25 19 14.25C21.6234 14.25 23.75 16.3766 23.75 19Z" stroke="white" stroke-width="3" stroke-linecap="round" stroke-linejoin="round"/>
</svg>
