<svg width="36" height="36" viewBox="0 0 36 36" fill="none" xmlns="http://www.w3.org/2000/svg">
<path d="M29.0834 7.5H6.91667C5.16777 7.5 3.75 9.06701 3.75 11V25C3.75 26.933 5.16777 28.5 6.91667 28.5H29.0834C30.8322 28.5 32.25 26.933 32.25 25V22.5H21C21 22.5 16.5 22.5 16.5 18C16.5 13.5 21 13.5 21 13.5H32.25V11C32.25 9.06701 30.8322 7.5 29.0834 7.5Z" fill="#F6B87E"/>
<path d="M32.25 13.5H21C18.5146 13.5 16.5 15.5146 16.5 18C16.5 20.4854 18.5146 22.5 21 22.5H32.25M21 18V18.015M6.91667 7.5H29.0834C30.8322 7.5 32.25 9.06701 32.25 11V25.0001C32.25 26.933 30.8322 28.5 29.0834 28.5H6.91667C5.16777 28.5 3.75 26.933 3.75 25.0001V11C3.75 9.06701 5.16777 7.5 6.91667 7.5Z" stroke="#323232" stroke-width="3" stroke-linecap="round" stroke-linejoin="round"/>
</svg>
